<svg height="40" viewBox="0 0 24 24" width="40" xmlns="http://www.w3.org/2000/svg"><path d="M0 0h24v24H0V0z" fill="none" opacity=".87"/><path d="M11.847.47C5.471.47.317 5.658.317 12.076c0 6.419 5.154 11.607 11.53 11.607 6.376 0 11.53-5.188 11.53-11.607C23.377 5.658 18.223.47 11.847.47zm0 20.892c-5.085 0-9.224-4.167-9.224-9.286 0-5.118 4.14-9.285 9.224-9.285 5.085 0 9.224 4.167 9.224 9.285 0 5.119-4.14 9.286-9.224 9.286zm4.14-15.089l-4.14 4.167-4.14-4.167L6.083 7.91l4.14 4.166-4.14 4.167 1.626 1.637 4.139-4.167 4.14 4.167 1.625-1.637-4.14-4.167 4.14-4.166z"/></svg>